<?xml version="1.0" encoding="UTF-8" standalone="no"?>
<!DOCTYPE svg PUBLIC "-//W3C//DTD SVG 1.1//EN" "http://www.w3.org/Graphics/SVG/1.1/DTD/svg11.dtd">
<svg version="1.1" xmlns="http://www.w3.org/2000/svg" xmlns:xlink="http://www.w3.org/1999/xlink" preserveAspectRatio="xMidYMid meet" viewBox="130.47540983606547 134.98360655737696 353.1803278688525 236.5409836065574" width="349.18" height="232.54"><defs><path d="M480.66 179.84C480.66 186.4 402.42 191.72 306.07 191.72C209.71 191.72 131.48 186.4 131.48 179.84C131.48 173.28 209.71 167.95 306.07 167.95C402.42 167.95 480.66 173.28 480.66 179.84Z" id="bkrnXcvvu"></path><path d="M131.48 179.84L480.66 179.84L480.66 368.52L131.48 368.52L131.48 179.84Z" id="a3eu8qH885"></path><path d="M405.52 135.98C410.53 135.98 414.59 140.04 414.59 145.05C414.59 154.38 414.59 173.32 414.59 182.65C414.59 187.66 410.53 191.72 405.52 191.72C363.93 191.72 248.2 191.72 206.61 191.72C201.6 191.72 197.54 187.66 197.54 182.65C197.54 173.32 197.54 154.38 197.54 145.05C197.54 140.04 201.6 135.98 206.61 135.98C248.2 135.98 363.93 135.98 405.52 135.98Z" id="d2OaibmX9"></path><path d="M249.51 157.7C249.51 163.36 245.28 167.95 240.08 167.95C234.88 167.95 230.66 163.36 230.66 157.7C230.66 152.05 234.88 147.46 240.08 147.46C245.28 147.46 249.51 152.05 249.51 157.7Z" id="g1oazDt3t8"></path><path d="M315.49 155.25C315.49 160.9 311.27 165.49 306.07 165.49C300.86 165.49 296.64 160.9 296.64 155.25C296.64 149.59 300.86 145 306.07 145C311.27 145 315.49 149.59 315.49 155.25Z" id="c162GetMAk"></path><path d="M382.62 157.7C382.62 163.36 378.4 167.95 373.2 167.95C367.99 167.95 363.77 163.36 363.77 157.7C363.77 152.05 367.99 147.46 373.2 147.46C378.4 147.46 382.62 152.05 382.62 157.7Z" id="f3cDPd0d7"></path><path d="M230.66 186.8L233.11 186.8L233.11 354.59L230.66 354.59L230.66 186.8Z" id="f6pEDe1nX"></path><path d="M381.39 186.8L383.85 186.8L383.85 354.59L381.39 354.59L381.39 186.8Z" id="d1vbNIUn9T"></path><path d="M339.67 290.49C339.67 309.04 324.25 324.1 305.25 324.1C286.25 324.1 270.82 309.04 270.82 290.49C270.82 271.94 286.25 256.89 305.25 256.89C324.25 256.89 339.67 271.94 339.67 290.49Z" id="a1rGcAr9ec"></path><path d="M459.14 295.98C459.14 311.5 449.16 324.1 436.86 324.1C424.57 324.1 414.59 311.5 414.59 295.98C414.59 280.45 424.57 267.85 436.86 267.85C449.16 267.85 459.14 280.45 459.14 295.98Z" id="a5fUURuo1"></path><path d="M201.64 295.98C201.64 311.5 191.66 324.1 179.37 324.1C167.07 324.1 157.09 311.5 157.09 295.98C157.09 280.45 167.07 267.85 179.37 267.85C191.66 267.85 201.64 280.45 201.64 295.98Z" id="b1SzHQzlqn"></path></defs><g><g><use xlink:href="#bkrnXcvvu" opacity="1" fill="#000000" fill-opacity="1"></use></g><g><use xlink:href="#a3eu8qH885" opacity="1" fill="#000000" fill-opacity="1"></use></g><g><use xlink:href="#d2OaibmX9" opacity="1" fill="#020202" fill-opacity="1"></use></g><g><use xlink:href="#g1oazDt3t8" opacity="1" fill="#fcfcfc" fill-opacity="1"></use></g><g><use xlink:href="#c162GetMAk" opacity="1" fill="#fcfcfc" fill-opacity="1"></use></g><g><use xlink:href="#f3cDPd0d7" opacity="1" fill="#fcfcfc" fill-opacity="1"></use></g><g><use xlink:href="#f6pEDe1nX" opacity="1" fill="#ffffff" fill-opacity="1"></use></g><g><use xlink:href="#d1vbNIUn9T" opacity="1" fill="#ffffff" fill-opacity="1"></use></g><g><use xlink:href="#a1rGcAr9ec" opacity="1" fill="#f2ebeb" fill-opacity="1"></use></g><g><use xlink:href="#a5fUURuo1" opacity="1" fill="#f2ebeb" fill-opacity="1"></use></g><g><use xlink:href="#b1SzHQzlqn" opacity="1" fill="#f2ebeb" fill-opacity="1"></use></g></g></svg>