<?xml version="1.0" encoding="UTF-8" standalone="no"?>
<!DOCTYPE svg PUBLIC "-//W3C//DTD SVG 1.1//EN" "http://www.w3.org/Graphics/SVG/1.1/DTD/svg11.dtd">
<svg version="1.1" xmlns="http://www.w3.org/2000/svg" xmlns:xlink="http://www.w3.org/1999/xlink" preserveAspectRatio="xMidYMid meet" viewBox="0.1999892247584114 -1 394 394" width="390" height="390"><defs><path d="M1.2 0L391.2 0L391.2 390L1.2 390L1.2 0Z" id="a5uND4LTq"></path><path d="M260.61 105.9C265.44 105.9 269.36 109.82 269.36 114.66C269.36 119.49 265.44 123.41 260.61 123.41C255.77 123.41 251.85 119.49 251.85 114.66C251.85 109.82 255.77 105.9 260.61 105.9Z" id="fwJl8zKjH"></path><path d="M260.61 105.9C265.44 105.9 269.36 109.82 269.36 114.66C269.36 119.49 265.44 123.41 260.61 123.41C255.77 123.41 251.85 119.49 251.85 114.66C251.85 109.82 255.77 105.9 260.61 105.9Z" id="aww1eNEig"></path><path d="M260.61 105.9C265.44 105.9 269.36 109.82 269.36 114.66C269.36 119.49 265.44 123.41 260.61 123.41C255.77 123.41 251.85 119.49 251.85 114.66C251.85 109.82 255.77 105.9 260.61 105.9Z" id="b42b7OKICN"></path><path d="M260.61 105.9C265.44 105.9 269.36 109.82 269.36 114.66C269.36 119.49 265.44 123.41 260.61 123.41C255.77 123.41 251.85 119.49 251.85 114.66C251.85 109.82 255.77 105.9 260.61 105.9Z" id="c2pdd39GEF"></path><path d="M136.94 105.9C141.77 105.9 145.7 109.82 145.7 114.66C145.7 119.49 141.77 123.41 136.94 123.41C132.11 123.41 128.19 119.49 128.19 114.66C128.19 109.82 132.11 105.9 136.94 105.9Z" id="a1iZk1jsE0"></path><path d="M136.94 105.9C141.77 105.9 145.7 109.82 145.7 114.66C145.7 119.49 141.77 123.41 136.94 123.41C132.11 123.41 128.19 119.49 128.19 114.66C128.19 109.82 132.11 105.9 136.94 105.9Z" id="a14OtKXf9U"></path><path d="M198.25 123.41C287.76 123.41 360.42 127.98 360.42 133.58C360.42 139.2 287.76 143.75 198.25 143.75C108.74 143.75 36.06 139.2 36.06 133.58C36.06 127.98 108.74 123.41 198.25 123.41Z" id="a3pLxsbLTy"></path><path d="M198.25 123.41C287.76 123.41 360.42 127.98 360.42 133.58C360.42 139.2 287.76 143.75 198.25 143.75C108.74 143.75 36.06 139.2 36.06 133.58C36.06 127.98 108.74 123.41 198.25 123.41Z" id="cORNghOXS"></path><path d="M198.25 123.41C287.76 123.41 360.42 127.98 360.42 133.58C360.42 139.2 287.76 143.75 198.25 143.75C108.74 143.75 36.06 139.2 36.06 133.58C36.06 127.98 108.74 123.41 198.25 123.41Z" id="awoKkEcHV"></path><path d="M198.25 123.41C287.76 123.41 360.42 127.98 360.42 133.58C360.42 139.2 287.76 143.75 198.25 143.75C108.74 143.75 36.06 139.2 36.06 133.58C36.06 127.98 108.74 123.41 198.25 123.41Z" id="a21vyDMkn8"></path><path d="M36.06 294.96L36.06 133.58L360.42 133.58L360.42 294.96L36.06 294.96Z" id="b1PX1vDfGD"></path><path d="M36.06 294.96L36.06 133.58L360.42 133.58L360.42 294.96L36.06 294.96Z" id="b4ORad4pr"></path><path d="M36.06 294.96L36.06 133.58L360.42 133.58L360.42 294.96L36.06 294.96Z" id="bUe7vzLG"></path><path d="M36.06 294.96L36.06 133.58L360.42 133.58L360.42 294.96L36.06 294.96Z" id="d2n3wLaHfX"></path><path d="M290.63 143.75C251.99 143.75 144.48 143.75 105.84 143.75C101.19 143.75 97.42 140.27 97.42 135.99C97.42 128.01 97.42 111.81 97.42 103.83C97.42 99.55 101.19 96.08 105.84 96.08C144.48 96.08 251.99 96.08 290.63 96.08C295.28 96.08 299.05 99.55 299.05 103.83C299.05 111.81 299.05 128.01 299.05 135.99C299.05 140.27 295.28 143.75 290.63 143.75Z" id="c68ruXW1kg"></path><path d="M290.63 143.75C251.99 143.75 144.48 143.75 105.84 143.75C101.19 143.75 97.42 140.27 97.42 135.99C97.42 128.01 97.42 111.81 97.42 103.83C97.42 99.55 101.19 96.08 105.84 96.08C144.48 96.08 251.99 96.08 290.63 96.08C295.28 96.08 299.05 99.55 299.05 103.83C299.05 111.81 299.05 128.01 299.05 135.99C299.05 140.27 295.28 143.75 290.63 143.75Z" id="g8i95QgGC0"></path><path d="M290.63 143.75C251.99 143.75 144.48 143.75 105.84 143.75C101.19 143.75 97.42 140.27 97.42 135.99C97.42 128.01 97.42 111.81 97.42 103.83C97.42 99.55 101.19 96.08 105.84 96.08C144.48 96.08 251.99 96.08 290.63 96.08C295.28 96.08 299.05 99.55 299.05 103.83C299.05 111.81 299.05 128.01 299.05 135.99C299.05 140.27 295.28 143.75 290.63 143.75Z" id="dDsyngW0"></path><path d="M290.63 143.75C251.99 143.75 144.48 143.75 105.84 143.75C101.19 143.75 97.42 140.27 97.42 135.99C97.42 128.01 97.42 111.81 97.42 103.83C97.42 99.55 101.19 96.08 105.84 96.08C144.48 96.08 251.99 96.08 290.63 96.08C295.28 96.08 299.05 99.55 299.05 103.83C299.05 111.81 299.05 128.01 299.05 135.99C299.05 140.27 295.28 143.75 290.63 143.75Z" id="bClPHUVx2"></path><path d="M136.94 105.9C141.77 105.9 145.7 109.82 145.7 114.66C145.7 119.49 141.77 123.41 136.94 123.41C132.11 123.41 128.19 119.49 128.19 114.66C128.19 109.82 132.11 105.9 136.94 105.9Z" id="a1bnhvngr"></path><path d="M136.94 105.9C141.77 105.9 145.7 109.82 145.7 114.66C145.7 119.49 141.77 123.41 136.94 123.41C132.11 123.41 128.19 119.49 128.19 114.66C128.19 109.82 132.11 105.9 136.94 105.9Z" id="bl4EFgN5t"></path><path d="M198.25 103.79C203.08 103.79 206.99 107.72 206.99 112.56C206.99 117.39 203.08 121.31 198.25 121.31C193.41 121.31 189.49 117.39 189.49 112.56C189.49 107.72 193.41 103.79 198.25 103.79Z" id="b4ENmOljCW"></path><path d="M198.25 103.79C203.08 103.79 206.99 107.72 206.99 112.56C206.99 117.39 203.08 121.31 198.25 121.31C193.41 121.31 189.49 117.39 189.49 112.56C189.49 107.72 193.41 103.79 198.25 103.79Z" id="c2XWfku23"></path><path d="M198.25 103.79C203.08 103.79 206.99 107.72 206.99 112.56C206.99 117.39 203.08 121.31 198.25 121.31C193.41 121.31 189.49 117.39 189.49 112.56C189.49 107.72 193.41 103.79 198.25 103.79Z" id="bgHfPzjx1"></path><path d="M198.25 103.79C203.08 103.79 206.99 107.72 206.99 112.56C206.99 117.39 203.08 121.31 198.25 121.31C193.41 121.31 189.49 117.39 189.49 112.56C189.49 107.72 193.41 103.79 198.25 103.79Z" id="b5z9mDUaIw"></path><path d="M128.19 283.05L128.19 149.55L130.47 149.55L130.47 283.05L128.19 283.05Z" id="b48p86jxQw"></path><path d="M128.19 283.05L128.19 149.55L130.47 149.55L130.47 283.05L128.19 283.05Z" id="aej2G2gIG"></path><path d="M128.19 283.05L128.19 149.55L130.47 149.55L130.47 283.05L128.19 283.05Z" id="dOEBN7E1x"></path><path d="M128.19 283.05L128.19 149.55L130.47 149.55L130.47 283.05L128.19 283.05Z" id="j2Q8XXd52s"></path><path d="M267.07 283.05L267.07 149.55L269.35 149.55L269.35 283.05L267.07 283.05Z" id="cYZlnjpip"></path><path d="M267.07 283.05L267.07 149.55L269.35 149.55L269.35 283.05L267.07 283.05Z" id="b1ZNTiNEr1"></path><path d="M267.07 283.05L267.07 149.55L269.35 149.55L269.35 283.05L267.07 283.05Z" id="a5zmAXPeT"></path><path d="M267.07 283.05L267.07 149.55L269.35 149.55L269.35 283.05L267.07 283.05Z" id="a86waj64Vx"></path><path d="M198.25 199.49C215.89 199.49 230.22 212.36 230.22 228.22C230.22 244.09 215.89 256.98 198.25 256.98C180.59 256.98 166.27 244.09 166.27 228.22C166.27 212.36 180.59 199.49 198.25 199.49Z" id="a4mjnuByA7"></path><path d="M198.25 199.49C215.89 199.49 230.22 212.36 230.22 228.22C230.22 244.09 215.89 256.98 198.25 256.98C180.59 256.98 166.27 244.09 166.27 228.22C166.27 212.36 180.59 199.49 198.25 199.49Z" id="c72fNKTnw"></path><path d="M198.25 199.49C215.89 199.49 230.22 212.36 230.22 228.22C230.22 244.09 215.89 256.98 198.25 256.98C180.59 256.98 166.27 244.09 166.27 228.22C166.27 212.36 180.59 199.49 198.25 199.49Z" id="afD26De5O"></path><path d="M198.25 199.49C215.89 199.49 230.22 212.36 230.22 228.22C230.22 244.09 215.89 256.98 198.25 256.98C180.59 256.98 166.27 244.09 166.27 228.22C166.27 212.36 180.59 199.49 198.25 199.49Z" id="a76lCB5sSx"></path><path d="M319.74 208.87C331.18 208.87 340.44 219.64 340.44 232.92C340.44 246.19 331.18 256.98 319.74 256.98C308.32 256.98 299.05 246.19 299.05 232.92C299.05 219.64 308.32 208.87 319.74 208.87Z" id="a1m2BWVOoN"></path><path d="M319.74 208.87C331.18 208.87 340.44 219.64 340.44 232.92C340.44 246.19 331.18 256.98 319.74 256.98C308.32 256.98 299.05 246.19 299.05 232.92C299.05 219.64 308.32 208.87 319.74 208.87Z" id="c32xrTLLv8"></path><path d="M319.74 208.87C331.18 208.87 340.44 219.64 340.44 232.92C340.44 246.19 331.18 256.98 319.74 256.98C308.32 256.98 299.05 246.19 299.05 232.92C299.05 219.64 308.32 208.87 319.74 208.87Z" id="bbiOBfMQn"></path><path d="M319.74 208.87C331.18 208.87 340.44 219.64 340.44 232.92C340.44 246.19 331.18 256.98 319.74 256.98C308.32 256.98 299.05 246.19 299.05 232.92C299.05 219.64 308.32 208.87 319.74 208.87Z" id="a1TkIpDytZ"></path><path d="M36.13 131.2C36.13 125.79 106.18 121.4 192.46 121.4C278.73 121.4 348.79 125.79 348.79 131.2C348.79 136.61 278.73 140.99 192.46 140.99C106.18 140.99 36.13 136.61 36.13 131.2Z" id="b2bQoKMFEb"></path><path d="M36.13 131.2C36.13 125.79 106.18 121.4 192.46 121.4C278.73 121.4 348.79 125.79 348.79 131.2C348.79 136.61 278.73 140.99 192.46 140.99C106.18 140.99 36.13 136.61 36.13 131.2Z" id="b2f2fBIKB"></path><path d="M348.79 286.74L36.13 286.74L36.13 131.2L348.79 131.2L348.79 286.74Z" id="csmTKO9dJ"></path><path d="M348.79 286.64L36.13 286.64L36.13 131.1L348.79 131.1L348.79 286.64Z" id="j2RnEI8aRQ"></path><path d="M289.63 133.52C289.63 137.64 285.99 140.99 281.5 140.99C244.27 140.99 140.64 140.99 103.4 140.99C98.91 140.99 95.28 137.64 95.28 133.52C95.28 125.83 95.28 110.21 95.28 102.52C95.28 98.39 98.91 95.04 103.4 95.04C140.64 95.04 244.27 95.04 281.5 95.04C285.99 95.04 289.63 98.39 289.63 102.52C289.63 110.21 289.63 125.83 289.63 133.52Z" id="b3SXyydSA"></path><path d="M289.63 133.52C289.63 137.64 285.99 140.99 281.5 140.99C244.27 140.99 140.64 140.99 103.4 140.99C98.91 140.99 95.28 137.64 95.28 133.52C95.28 125.83 95.28 110.21 95.28 102.52C95.28 98.39 98.91 95.04 103.4 95.04C140.64 95.04 244.27 95.04 281.5 95.04C285.99 95.04 289.63 98.39 289.63 102.52C289.63 110.21 289.63 125.83 289.63 133.52Z" id="glI1I0i3d"></path><path d="M124.94 112.95C124.94 108.29 128.72 104.5 133.37 104.5C138.03 104.5 141.81 108.29 141.81 112.95C141.81 117.62 138.03 121.4 133.37 121.4C128.72 121.4 124.94 117.62 124.94 112.95Z" id="a1yDR6QGAe"></path><path d="M124.94 112.95C124.94 108.29 128.72 104.5 133.37 104.5C138.03 104.5 141.81 108.29 141.81 112.95C141.81 117.62 138.03 121.4 133.37 121.4C128.72 121.4 124.94 117.62 124.94 112.95Z" id="a1aY0aBnm"></path><path d="M184.01 110.92C184.01 106.26 187.79 102.48 192.46 102.48C197.11 102.48 200.89 106.26 200.89 110.92C200.89 115.59 197.11 119.37 192.46 119.37C187.79 119.37 184.01 115.59 184.01 110.92Z" id="a1vsFm63KG"></path><path d="M184.01 110.92C184.01 106.26 187.79 102.48 192.46 102.48C197.11 102.48 200.89 106.26 200.89 110.92C200.89 115.59 197.11 119.37 192.46 119.37C187.79 119.37 184.01 115.59 184.01 110.92Z" id="coIGfDVqi"></path><path d="M244.12 112.95C244.12 108.29 247.9 104.5 252.56 104.5C257.22 104.5 261 108.29 261 112.95C261 117.62 257.22 121.4 252.56 121.4C247.9 121.4 244.12 117.62 244.12 112.95Z" id="baAoJL7Fg"></path><path d="M244.12 112.95C244.12 108.29 247.9 104.5 252.56 104.5C257.22 104.5 261 108.29 261 112.95C261 117.62 257.22 121.4 252.56 121.4C247.9 121.4 244.12 117.62 244.12 112.95Z" id="a6rowrV36"></path><path d="M127.13 275.26L124.94 275.26L124.94 146.58L127.13 146.58L127.13 275.26Z" id="awXORaY9t"></path><path d="M127.13 275.26L124.94 275.26L124.94 146.58L127.13 146.58L127.13 275.26Z" id="k109XcaivV"></path><path d="M260.99 275.26L258.8 275.26L258.8 146.58L260.99 146.58L260.99 275.26Z" id="b2dXiSIbhH"></path><path d="M260.99 275.26L258.8 275.26L258.8 146.58L260.99 146.58L260.99 275.26Z" id="a1wDsHaw5l"></path><path d="M161.63 222.48C161.63 206.03 175.96 192.68 193.61 192.68C211.25 192.68 225.58 206.03 225.58 222.48C225.58 238.93 211.25 252.29 193.61 252.29C175.96 252.29 161.63 238.93 161.63 222.48Z" id="agSvDZVfT"></path><path d="M291.16 222.49C291.16 209.69 300.09 199.3 311.1 199.3C322.11 199.3 331.05 209.69 331.05 222.49C331.05 235.29 322.11 245.67 311.1 245.67C300.09 245.67 291.16 235.29 291.16 222.49Z" id="a2DIsPBec"></path><path d="M82.08 204.18C93.49 204.18 102.77 214.95 102.77 228.23C102.77 241.5 93.49 252.29 82.08 252.29C70.65 252.29 61.38 241.5 61.38 228.23C61.38 214.95 70.65 204.18 82.08 204.18Z" id="fXktiCE6d"></path></defs><g><g><use xlink:href="#a5uND4LTq" opacity="1" fill="#a84122" fill-opacity="1"></use></g><g><use xlink:href="#fwJl8zKjH" opacity="1" fill="#a84122" fill-opacity="1"></use><g><use xlink:href="#fwJl8zKjH" opacity="1" fill-opacity="0" stroke="#000000" stroke-width="1" stroke-opacity="0"></use></g></g><g><use xlink:href="#aww1eNEig" opacity="1" fill="#000000" fill-opacity="0"></use><g><use xlink:href="#aww1eNEig" opacity="1" fill-opacity="0" stroke="#000000" stroke-width="1" stroke-opacity="0"></use></g></g><g><use xlink:href="#b42b7OKICN" opacity="1" fill="#000000" fill-opacity="0"></use><g><use xlink:href="#b42b7OKICN" opacity="1" fill-opacity="0" stroke="#000000" stroke-width="1" stroke-opacity="0"></use></g></g><g><use xlink:href="#c2pdd39GEF" opacity="1" fill="#000000" fill-opacity="0"></use><g><use xlink:href="#c2pdd39GEF" opacity="1" fill-opacity="0" stroke="#000000" stroke-width="1" stroke-opacity="0"></use></g></g><g><use xlink:href="#a1iZk1jsE0" opacity="1" fill="#000000" fill-opacity="0"></use><g><use xlink:href="#a1iZk1jsE0" opacity="1" fill-opacity="0" stroke="#000000" stroke-width="1" stroke-opacity="0"></use></g></g><g><use xlink:href="#a14OtKXf9U" opacity="1" fill="#000000" fill-opacity="0"></use><g><use xlink:href="#a14OtKXf9U" opacity="1" fill-opacity="0" stroke="#000000" stroke-width="1" stroke-opacity="0"></use></g></g><g><use xlink:href="#a3pLxsbLTy" opacity="1" fill="#000000" fill-opacity="1"></use><g><use xlink:href="#a3pLxsbLTy" opacity="1" fill-opacity="0" stroke="#000000" stroke-width="1" stroke-opacity="0"></use></g></g><g><use xlink:href="#cORNghOXS" opacity="1" fill="#000000" fill-opacity="0"></use><g><use xlink:href="#cORNghOXS" opacity="1" fill-opacity="0" stroke="#000000" stroke-width="1" stroke-opacity="0"></use></g></g><g><use xlink:href="#awoKkEcHV" opacity="1" fill="#000000" fill-opacity="0"></use><g><use xlink:href="#awoKkEcHV" opacity="1" fill-opacity="0" stroke="#000000" stroke-width="1" stroke-opacity="0"></use></g></g><g><use xlink:href="#a21vyDMkn8" opacity="1" fill="#000000" fill-opacity="0"></use><g><use xlink:href="#a21vyDMkn8" opacity="1" fill-opacity="0" stroke="#000000" stroke-width="1" stroke-opacity="0"></use></g></g><g><use xlink:href="#b1PX1vDfGD" opacity="1" fill="#000000" fill-opacity="1"></use><g><use xlink:href="#b1PX1vDfGD" opacity="1" fill-opacity="0" stroke="#000000" stroke-width="1" stroke-opacity="0"></use></g></g><g><use xlink:href="#b4ORad4pr" opacity="1" fill="#000000" fill-opacity="0"></use><g><use xlink:href="#b4ORad4pr" opacity="1" fill-opacity="0" stroke="#000000" stroke-width="1" stroke-opacity="0"></use></g></g><g><use xlink:href="#bUe7vzLG" opacity="1" fill="#000000" fill-opacity="0"></use><g><use xlink:href="#bUe7vzLG" opacity="1" fill-opacity="0" stroke="#000000" stroke-width="1" stroke-opacity="0"></use></g></g><g><use xlink:href="#d2n3wLaHfX" opacity="1" fill="#000000" fill-opacity="0"></use><g><use xlink:href="#d2n3wLaHfX" opacity="1" fill-opacity="0" stroke="#000000" stroke-width="1" stroke-opacity="0"></use></g></g><g><use xlink:href="#c68ruXW1kg" opacity="1" fill="#020202" fill-opacity="1"></use><g><use xlink:href="#c68ruXW1kg" opacity="1" fill-opacity="0" stroke="#000000" stroke-width="1" stroke-opacity="0"></use></g></g><g><use xlink:href="#g8i95QgGC0" opacity="1" fill="#000000" fill-opacity="0"></use><g><use xlink:href="#g8i95QgGC0" opacity="1" fill-opacity="0" stroke="#000000" stroke-width="1" stroke-opacity="0"></use></g></g><g><use xlink:href="#dDsyngW0" opacity="1" fill="#000000" fill-opacity="0"></use><g><use xlink:href="#dDsyngW0" opacity="1" fill-opacity="0" stroke="#000000" stroke-width="1" stroke-opacity="0"></use></g></g><g><use xlink:href="#bClPHUVx2" opacity="1" fill="#000000" fill-opacity="0"></use><g><use xlink:href="#bClPHUVx2" opacity="1" fill-opacity="0" stroke="#000000" stroke-width="1" stroke-opacity="0"></use></g></g><g><use xlink:href="#a1bnhvngr" opacity="1" fill="#a84122" fill-opacity="1"></use><g><use xlink:href="#a1bnhvngr" opacity="1" fill-opacity="0" stroke="#000000" stroke-width="1" stroke-opacity="0"></use></g></g><g><use xlink:href="#bl4EFgN5t" opacity="1" fill="#000000" fill-opacity="0"></use><g><use xlink:href="#bl4EFgN5t" opacity="1" fill-opacity="0" stroke="#000000" stroke-width="1" stroke-opacity="0"></use></g></g><g><use xlink:href="#b4ENmOljCW" opacity="1" fill="#a84122" fill-opacity="1"></use><g><use xlink:href="#b4ENmOljCW" opacity="1" fill-opacity="0" stroke="#000000" stroke-width="1" stroke-opacity="0"></use></g></g><g><use xlink:href="#c2XWfku23" opacity="1" fill="#000000" fill-opacity="0"></use><g><use xlink:href="#c2XWfku23" opacity="1" fill-opacity="0" stroke="#000000" stroke-width="1" stroke-opacity="0"></use></g></g><g><use xlink:href="#bgHfPzjx1" opacity="1" fill="#000000" fill-opacity="0"></use><g><use xlink:href="#bgHfPzjx1" opacity="1" fill-opacity="0" stroke="#000000" stroke-width="1" stroke-opacity="0"></use></g></g><g><use xlink:href="#b5z9mDUaIw" opacity="1" fill="#000000" fill-opacity="0"></use><g><use xlink:href="#b5z9mDUaIw" opacity="1" fill-opacity="0" stroke="#000000" stroke-width="1" stroke-opacity="0"></use></g></g><g><use xlink:href="#b48p86jxQw" opacity="1" fill="#a84122" fill-opacity="1"></use><g><use xlink:href="#b48p86jxQw" opacity="1" fill-opacity="0" stroke="#000000" stroke-width="1" stroke-opacity="0"></use></g></g><g><use xlink:href="#aej2G2gIG" opacity="1" fill="#000000" fill-opacity="0"></use><g><use xlink:href="#aej2G2gIG" opacity="1" fill-opacity="0" stroke="#000000" stroke-width="1" stroke-opacity="0"></use></g></g><g><use xlink:href="#dOEBN7E1x" opacity="1" fill="#000000" fill-opacity="0"></use><g><use xlink:href="#dOEBN7E1x" opacity="1" fill-opacity="0" stroke="#000000" stroke-width="1" stroke-opacity="0"></use></g></g><g><use xlink:href="#j2Q8XXd52s" opacity="1" fill="#000000" fill-opacity="0"></use><g><use xlink:href="#j2Q8XXd52s" opacity="1" fill-opacity="0" stroke="#000000" stroke-width="1" stroke-opacity="0"></use></g></g><g><use xlink:href="#cYZlnjpip" opacity="1" fill="#a84122" fill-opacity="1"></use><g><use xlink:href="#cYZlnjpip" opacity="1" fill-opacity="0" stroke="#000000" stroke-width="1" stroke-opacity="0"></use></g></g><g><use xlink:href="#b1ZNTiNEr1" opacity="1" fill="#000000" fill-opacity="0"></use><g><use xlink:href="#b1ZNTiNEr1" opacity="1" fill-opacity="0" stroke="#000000" stroke-width="1" stroke-opacity="0"></use></g></g><g><use xlink:href="#a5zmAXPeT" opacity="1" fill="#000000" fill-opacity="0"></use><g><use xlink:href="#a5zmAXPeT" opacity="1" fill-opacity="0" stroke="#000000" stroke-width="1" stroke-opacity="0"></use></g></g><g><use xlink:href="#a86waj64Vx" opacity="1" fill="#000000" fill-opacity="0"></use><g><use xlink:href="#a86waj64Vx" opacity="1" fill-opacity="0" stroke="#000000" stroke-width="1" stroke-opacity="0"></use></g></g><g><use xlink:href="#a4mjnuByA7" opacity="1" fill="#a84122" fill-opacity="1"></use><g><use xlink:href="#a4mjnuByA7" opacity="1" fill-opacity="0" stroke="#000000" stroke-width="1" stroke-opacity="0"></use></g></g><g><use xlink:href="#c72fNKTnw" opacity="1" fill="#000000" fill-opacity="0"></use><g><use xlink:href="#c72fNKTnw" opacity="1" fill-opacity="0" stroke="#000000" stroke-width="1" stroke-opacity="0"></use></g></g><g><use xlink:href="#afD26De5O" opacity="1" fill="#000000" fill-opacity="0"></use><g><use xlink:href="#afD26De5O" opacity="1" fill-opacity="0" stroke="#000000" stroke-width="1" stroke-opacity="0"></use></g></g><g><use xlink:href="#a76lCB5sSx" opacity="1" fill="#000000" fill-opacity="0"></use><g><use xlink:href="#a76lCB5sSx" opacity="1" fill-opacity="0" stroke="#000000" stroke-width="1" stroke-opacity="0"></use></g></g><g><use xlink:href="#a1m2BWVOoN" opacity="1" fill="#a84122" fill-opacity="1"></use><g><use xlink:href="#a1m2BWVOoN" opacity="1" fill-opacity="0" stroke="#000000" stroke-width="1" stroke-opacity="0"></use></g></g><g><use xlink:href="#c32xrTLLv8" opacity="1" fill="#000000" fill-opacity="0"></use><g><use xlink:href="#c32xrTLLv8" opacity="1" fill-opacity="0" stroke="#000000" stroke-width="1" stroke-opacity="0"></use></g></g><g><use xlink:href="#bbiOBfMQn" opacity="1" fill="#000000" fill-opacity="0"></use><g><use xlink:href="#bbiOBfMQn" opacity="1" fill-opacity="0" stroke="#000000" stroke-width="1" stroke-opacity="0"></use></g></g><g><use xlink:href="#a1TkIpDytZ" opacity="1" fill="#000000" fill-opacity="0"></use><g><use xlink:href="#a1TkIpDytZ" opacity="1" fill-opacity="0" stroke="#000000" stroke-width="1" stroke-opacity="0"></use></g></g><g><use xlink:href="#b2bQoKMFEb" opacity="1" fill="#000000" fill-opacity="1"></use><g><use xlink:href="#b2bQoKMFEb" opacity="1" fill-opacity="0" stroke="#000000" stroke-width="1" stroke-opacity="0"></use></g></g><g><use xlink:href="#b2f2fBIKB" opacity="1" fill="#000000" fill-opacity="0"></use><g><use xlink:href="#b2f2fBIKB" opacity="1" fill-opacity="0" stroke="#000000" stroke-width="1" stroke-opacity="0"></use></g></g><g><use xlink:href="#csmTKO9dJ" opacity="1" fill="#000000" fill-opacity="1"></use><g><use xlink:href="#csmTKO9dJ" opacity="1" fill-opacity="0" stroke="#000000" stroke-width="1" stroke-opacity="0"></use></g></g><g><use xlink:href="#j2RnEI8aRQ" opacity="1" fill="#000000" fill-opacity="0"></use><g><use xlink:href="#j2RnEI8aRQ" opacity="1" fill-opacity="0" stroke="#000000" stroke-width="1" stroke-opacity="0"></use></g></g><g><use xlink:href="#b3SXyydSA" opacity="1" fill="#020202" fill-opacity="1"></use><g><use xlink:href="#b3SXyydSA" opacity="1" fill-opacity="0" stroke="#000000" stroke-width="1" stroke-opacity="0"></use></g></g><g><use xlink:href="#glI1I0i3d" opacity="1" fill="#000000" fill-opacity="0"></use><g><use xlink:href="#glI1I0i3d" opacity="1" fill-opacity="0" stroke="#000000" stroke-width="1" stroke-opacity="0"></use></g></g><g><use xlink:href="#a1yDR6QGAe" opacity="1" fill="#a84122" fill-opacity="1"></use><g><use xlink:href="#a1yDR6QGAe" opacity="1" fill-opacity="0" stroke="#000000" stroke-width="1" stroke-opacity="0"></use></g></g><g><use xlink:href="#a1aY0aBnm" opacity="1" fill="#000000" fill-opacity="0"></use><g><use xlink:href="#a1aY0aBnm" opacity="1" fill-opacity="0" stroke="#000000" stroke-width="1" stroke-opacity="0"></use></g></g><g><use xlink:href="#a1vsFm63KG" opacity="1" fill="#a84122" fill-opacity="1"></use><g><use xlink:href="#a1vsFm63KG" opacity="1" fill-opacity="0" stroke="#000000" stroke-width="1" stroke-opacity="0"></use></g></g><g><use xlink:href="#coIGfDVqi" opacity="1" fill="#000000" fill-opacity="0"></use><g><use xlink:href="#coIGfDVqi" opacity="1" fill-opacity="0" stroke="#000000" stroke-width="1" stroke-opacity="0"></use></g></g><g><use xlink:href="#baAoJL7Fg" opacity="1" fill="#a84122" fill-opacity="1"></use><g><use xlink:href="#baAoJL7Fg" opacity="1" fill-opacity="0" stroke="#000000" stroke-width="1" stroke-opacity="0"></use></g></g><g><use xlink:href="#a6rowrV36" opacity="1" fill="#000000" fill-opacity="0"></use><g><use xlink:href="#a6rowrV36" opacity="1" fill-opacity="0" stroke="#000000" stroke-width="1" stroke-opacity="0"></use></g></g><g><use xlink:href="#awXORaY9t" opacity="1" fill="#a84122" fill-opacity="1"></use><g><use xlink:href="#awXORaY9t" opacity="1" fill-opacity="0" stroke="#000000" stroke-width="1" stroke-opacity="0"></use></g></g><g><use xlink:href="#k109XcaivV" opacity="1" fill="#000000" fill-opacity="0"></use><g><use xlink:href="#k109XcaivV" opacity="1" fill-opacity="0" stroke="#000000" stroke-width="1" stroke-opacity="0"></use></g></g><g><use xlink:href="#b2dXiSIbhH" opacity="1" fill="#a84122" fill-opacity="1"></use><g><use xlink:href="#b2dXiSIbhH" opacity="1" fill-opacity="0" stroke="#000000" stroke-width="1" stroke-opacity="0"></use></g></g><g><use xlink:href="#a1wDsHaw5l" opacity="1" fill="#000000" fill-opacity="0"></use><g><use xlink:href="#a1wDsHaw5l" opacity="1" fill-opacity="0" stroke="#000000" stroke-width="1" stroke-opacity="0"></use></g></g><g><use xlink:href="#agSvDZVfT" opacity="1" fill="#a84122" fill-opacity="1"></use><g><use xlink:href="#agSvDZVfT" opacity="1" fill-opacity="0" stroke="#000000" stroke-width="1" stroke-opacity="0"></use></g></g><g><use xlink:href="#a2DIsPBec" opacity="1" fill="#a84122" fill-opacity="1"></use><g><use xlink:href="#a2DIsPBec" opacity="1" fill-opacity="0" stroke="#000000" stroke-width="1" stroke-opacity="0"></use></g></g><g><use xlink:href="#fXktiCE6d" opacity="1" fill="#a84122" fill-opacity="1"></use><g><use xlink:href="#fXktiCE6d" opacity="1" fill-opacity="0" stroke="#000000" stroke-width="1" stroke-opacity="0"></use></g></g></g></svg>