<?xml version="1.0" encoding="UTF-8" standalone="no"?>
<!DOCTYPE svg PUBLIC "-//W3C//DTD SVG 1.1//EN" "http://www.w3.org/Graphics/SVG/1.1/DTD/svg11.dtd">
<svg version="1.1" xmlns="http://www.w3.org/2000/svg" xmlns:xlink="http://www.w3.org/1999/xlink" preserveAspectRatio="xMidYMid meet" viewBox="0 0 640 640" width="640" height="640"><defs><path d="M0 45.86C0 39.18 79.61 33.76 177.66 33.76C275.71 33.76 355.31 39.18 355.31 45.86C355.31 52.54 275.71 57.95 177.66 57.95C79.61 57.95 0 52.54 0 45.86Z" id="a1gpdfphv"></path><path d="M0 45.86C0 39.18 79.61 33.76 177.66 33.76C275.71 33.76 355.31 39.18 355.31 45.86C355.31 52.54 275.71 57.95 177.66 57.95C79.61 57.95 0 52.54 0 45.86Z" id="b22MZMuy2M"></path><path d="M355.31 237.86L0 237.86L0 45.86L355.31 45.86L355.31 237.86Z" id="j11bcs3el"></path><path d="M355.31 237.86L0 237.86L0 45.86L355.31 45.86L355.31 237.86Z" id="c5182cyPk"></path><path d="M288.08 48.72C288.08 53.81 283.95 57.95 278.86 57.95C236.53 57.95 118.77 57.95 76.44 57.95C71.35 57.95 67.22 53.81 67.22 48.72C67.22 39.23 67.22 19.95 67.22 10.46C67.22 5.36 71.35 1.23 76.44 1.23C118.77 1.23 236.53 1.23 278.86 1.23C283.95 1.23 288.08 5.36 288.08 10.46C288.08 19.95 288.08 39.23 288.08 48.72Z" id="foX2lENW4"></path><path d="M288.08 48.72C288.08 53.81 283.95 57.95 278.86 57.95C236.53 57.95 118.77 57.95 76.44 57.95C71.35 57.95 67.22 53.81 67.22 48.72C67.22 39.23 67.22 19.95 67.22 10.46C67.22 5.36 71.35 1.23 76.44 1.23C118.77 1.23 236.53 1.23 278.86 1.23C283.95 1.23 288.08 5.36 288.08 10.46C288.08 19.95 288.08 39.23 288.08 48.72Z" id="c1KXipBcDX"></path><path d="M100.92 23.33C100.92 17.58 105.21 12.91 110.5 12.91C115.8 12.91 120.1 17.58 120.1 23.33C120.1 29.09 115.8 33.76 110.5 33.76C105.21 33.76 100.92 29.09 100.92 23.33Z" id="e1Ok6krYgR"></path><path d="M100.92 23.33C100.92 17.58 105.21 12.91 110.5 12.91C115.8 12.91 120.1 17.58 120.1 23.33C120.1 29.09 115.8 33.76 110.5 33.76C105.21 33.76 100.92 29.09 100.92 23.33Z" id="bYe6hYa9K"></path><path d="M168.06 20.84C168.06 15.08 172.36 10.4 177.66 10.4C182.95 10.4 187.24 15.08 187.24 20.84C187.24 26.59 182.95 31.26 177.66 31.26C172.36 31.26 168.06 26.59 168.06 20.84Z" id="c1I5gYEgAj"></path><path d="M168.06 20.84C168.06 15.08 172.36 10.4 177.66 10.4C182.95 10.4 187.24 15.08 187.24 20.84C187.24 26.59 182.95 31.26 177.66 31.26C172.36 31.26 168.06 26.59 168.06 20.84Z" id="a2rZepAMi6"></path><path d="M236.37 23.33C236.37 17.58 240.67 12.91 245.97 12.91C251.26 12.91 255.56 17.58 255.56 23.33C255.56 29.09 251.26 33.76 245.97 33.76C240.67 33.76 236.37 29.09 236.37 23.33Z" id="d7NjCGfHAa"></path><path d="M236.37 23.33C236.37 17.58 240.67 12.91 245.97 12.91C251.26 12.91 255.56 17.58 255.56 23.33C255.56 29.09 251.26 33.76 245.97 33.76C240.67 33.76 236.37 29.09 236.37 23.33Z" id="d1VkYw2LX"></path><path d="M103.42 223.68L100.92 223.68L100.92 64.85L103.42 64.85L103.42 223.68Z" id="b4jghp9502"></path><path d="M103.42 223.68L100.92 223.68L100.92 64.85L103.42 64.85L103.42 223.68Z" id="nVaY6sE4G"></path><path d="M255.55 223.68L253.05 223.68L253.05 64.85L255.55 64.85L255.55 223.68Z" id="a3idOeIiwD"></path><path d="M255.55 223.68L253.05 223.68L253.05 64.85L255.55 64.85L255.55 223.68Z" id="a2IQCivqx4"></path><path d="M142.63 158.46C142.63 139.58 158.32 124.27 177.66 124.27C196.99 124.27 212.68 139.58 212.68 158.46C212.68 177.33 196.99 192.66 177.66 192.66C158.32 192.66 142.63 177.33 142.63 158.46Z" id="d4Af4I9k1d"></path><path d="M142.63 158.46C142.63 139.58 158.32 124.27 177.66 124.27C196.99 124.27 212.68 139.58 212.68 158.46C212.68 177.33 196.99 192.66 177.66 192.66C158.32 192.66 142.63 177.33 142.63 158.46Z" id="eMhhUwxBC"></path><path d="M288.08 164.05C288.08 148.24 298.24 135.42 310.74 135.42C323.26 135.42 333.42 148.24 333.42 164.05C333.42 179.84 323.26 192.66 310.74 192.66C298.24 192.66 288.08 179.84 288.08 164.05Z" id="a2x4H0QwGQ"></path><path d="M288.08 164.05C288.08 148.24 298.24 135.42 310.74 135.42C323.26 135.42 333.42 148.24 333.42 164.05C333.42 179.84 323.26 192.66 310.74 192.66C298.24 192.66 288.08 179.84 288.08 164.05Z" id="bf0Hq4hLz"></path><path d="M26.06 164.05C26.06 148.24 36.21 135.42 48.73 135.42C61.23 135.42 71.39 148.24 71.39 164.05C71.39 179.84 61.23 192.66 48.73 192.66C36.21 192.66 26.06 179.84 26.06 164.05Z" id="c18Dignf3r"></path><path d="M26.06 164.05C26.06 148.24 36.21 135.42 48.73 135.42C61.23 135.42 71.39 148.24 71.39 164.05C71.39 179.84 61.23 192.66 48.73 192.66C36.21 192.66 26.06 179.84 26.06 164.05Z" id="bJEVZmm96"></path><path d="M171.32 54.67C76.81 54.67 0.08 49.45 0.08 43.02C0.08 36.58 76.81 31.36 171.32 31.36C265.82 31.36 342.56 36.58 342.56 43.02C342.56 49.45 265.82 54.67 171.32 54.67Z" id="h3Lyn4ua0E"></path><path d="M342.56 43.02L342.56 228.08L0.08 228.08L0.08 43.02L342.56 43.02Z" id="a1WaIwNO8u"></path><path d="M277.75 8.9C277.75 18.05 277.75 36.62 277.75 45.77C277.75 50.69 273.77 54.67 268.86 54.67C228.07 54.67 114.56 54.67 73.77 54.67C68.85 54.67 64.87 50.69 64.87 45.77C64.87 36.62 64.87 18.05 64.87 8.9C64.87 3.98 68.85 0 73.77 0C114.56 0 228.07 0 268.86 0C273.77 0 277.75 3.98 277.75 8.9Z" id="a19qCcgrJM"></path><path d="M106.59 31.36C101.49 31.36 97.35 26.85 97.35 21.3C97.35 15.76 101.49 11.26 106.59 11.26C111.69 11.26 115.84 15.76 115.84 21.3C115.84 26.85 111.69 31.36 106.59 31.36Z" id="b34GO2boFv"></path><path d="M171.32 28.94C166.21 28.94 162.07 24.44 162.07 18.9C162.07 13.35 166.21 8.85 171.32 8.85C176.42 8.85 180.56 13.35 180.56 18.9C180.56 24.44 176.42 28.94 171.32 28.94Z" id="amoHGPXlo"></path><path d="M237.16 31.36C232.05 31.36 227.91 26.85 227.91 21.3C227.91 15.76 232.05 11.26 237.16 11.26C242.26 11.26 246.4 15.76 246.4 21.3C246.4 26.85 242.26 31.36 237.16 31.36Z" id="ddcyQxVPi"></path><path d="M99.76 61.32L99.76 214.41L97.35 214.41L97.35 61.32L99.76 61.32Z" id="ahsVB87AQ"></path><path d="M246.39 61.32L246.39 214.41L243.98 214.41L243.98 61.32L246.39 61.32Z" id="ds7yIeVQC"></path><path d="M171.32 184.51C152.68 184.51 137.55 169.74 137.55 151.54C137.55 133.35 152.68 118.59 171.32 118.59C189.95 118.59 205.08 133.35 205.08 151.54C205.08 169.74 189.95 184.51 171.32 184.51Z" id="b1eYnrClFj"></path><path d="M299.6 184.51C287.54 184.51 277.75 172.15 277.75 156.93C277.75 141.7 287.54 129.34 299.6 129.34C311.66 129.34 321.45 141.7 321.45 156.93C321.45 172.15 311.66 184.51 299.6 184.51Z" id="c2N9IefhvR"></path><path d="M47.05 184.51C34.99 184.51 25.2 172.15 25.2 156.93C25.2 141.7 34.99 129.34 47.05 129.34C59.1 129.34 68.89 141.7 68.89 156.93C68.89 172.15 59.1 184.51 47.05 184.51Z" id="boaIi5Wgl"></path></defs><g><g><g><use xlink:href="#a1gpdfphv" opacity="1" fill="#000000" fill-opacity="1"></use><g><use xlink:href="#a1gpdfphv" opacity="1" fill-opacity="0" stroke="#000000" stroke-width="1" stroke-opacity="0"></use></g></g><g><use xlink:href="#b22MZMuy2M" opacity="1" fill="#000000" fill-opacity="0"></use><g><use xlink:href="#b22MZMuy2M" opacity="1" fill-opacity="0" stroke="#000000" stroke-width="1" stroke-opacity="0"></use></g></g><g><use xlink:href="#j11bcs3el" opacity="1" fill="#000000" fill-opacity="1"></use><g><use xlink:href="#j11bcs3el" opacity="1" fill-opacity="0" stroke="#000000" stroke-width="1" stroke-opacity="0"></use></g></g><g><use xlink:href="#c5182cyPk" opacity="1" fill="#000000" fill-opacity="0"></use><g><use xlink:href="#c5182cyPk" opacity="1" fill-opacity="0" stroke="#000000" stroke-width="1" stroke-opacity="0"></use></g></g><g><use xlink:href="#foX2lENW4" opacity="1" fill="#020202" fill-opacity="1"></use><g><use xlink:href="#foX2lENW4" opacity="1" fill-opacity="0" stroke="#000000" stroke-width="1" stroke-opacity="0"></use></g></g><g><use xlink:href="#c1KXipBcDX" opacity="1" fill="#000000" fill-opacity="0"></use><g><use xlink:href="#c1KXipBcDX" opacity="1" fill-opacity="0" stroke="#000000" stroke-width="1" stroke-opacity="0"></use></g></g><g><use xlink:href="#e1Ok6krYgR" opacity="1" fill="#a84122" fill-opacity="1"></use><g><use xlink:href="#e1Ok6krYgR" opacity="1" fill-opacity="0" stroke="#000000" stroke-width="1" stroke-opacity="0"></use></g></g><g><use xlink:href="#bYe6hYa9K" opacity="1" fill="#000000" fill-opacity="0"></use><g><use xlink:href="#bYe6hYa9K" opacity="1" fill-opacity="0" stroke="#000000" stroke-width="1" stroke-opacity="0"></use></g></g><g><use xlink:href="#c1I5gYEgAj" opacity="1" fill="#a84122" fill-opacity="1"></use><g><use xlink:href="#c1I5gYEgAj" opacity="1" fill-opacity="0" stroke="#000000" stroke-width="1" stroke-opacity="0"></use></g></g><g><use xlink:href="#a2rZepAMi6" opacity="1" fill="#000000" fill-opacity="0"></use><g><use xlink:href="#a2rZepAMi6" opacity="1" fill-opacity="0" stroke="#000000" stroke-width="1" stroke-opacity="0"></use></g></g><g><use xlink:href="#d7NjCGfHAa" opacity="1" fill="#a84122" fill-opacity="1"></use><g><use xlink:href="#d7NjCGfHAa" opacity="1" fill-opacity="0" stroke="#000000" stroke-width="1" stroke-opacity="0"></use></g></g><g><use xlink:href="#d1VkYw2LX" opacity="1" fill="#000000" fill-opacity="0"></use><g><use xlink:href="#d1VkYw2LX" opacity="1" fill-opacity="0" stroke="#000000" stroke-width="1" stroke-opacity="0"></use></g></g><g><use xlink:href="#b4jghp9502" opacity="1" fill="#a84122" fill-opacity="1"></use><g><use xlink:href="#b4jghp9502" opacity="1" fill-opacity="0" stroke="#000000" stroke-width="1" stroke-opacity="0"></use></g></g><g><use xlink:href="#nVaY6sE4G" opacity="1" fill="#000000" fill-opacity="0"></use><g><use xlink:href="#nVaY6sE4G" opacity="1" fill-opacity="0" stroke="#000000" stroke-width="1" stroke-opacity="0"></use></g></g><g><use xlink:href="#a3idOeIiwD" opacity="1" fill="#a84122" fill-opacity="1"></use><g><use xlink:href="#a3idOeIiwD" opacity="1" fill-opacity="0" stroke="#000000" stroke-width="1" stroke-opacity="0"></use></g></g><g><use xlink:href="#a2IQCivqx4" opacity="1" fill="#000000" fill-opacity="0"></use><g><use xlink:href="#a2IQCivqx4" opacity="1" fill-opacity="0" stroke="#000000" stroke-width="1" stroke-opacity="0"></use></g></g><g><use xlink:href="#d4Af4I9k1d" opacity="1" fill="#a84122" fill-opacity="1"></use><g><use xlink:href="#d4Af4I9k1d" opacity="1" fill-opacity="0" stroke="#000000" stroke-width="1" stroke-opacity="0"></use></g></g><g><use xlink:href="#eMhhUwxBC" opacity="1" fill="#000000" fill-opacity="0"></use><g><use xlink:href="#eMhhUwxBC" opacity="1" fill-opacity="0" stroke="#000000" stroke-width="1" stroke-opacity="0"></use></g></g><g><use xlink:href="#a2x4H0QwGQ" opacity="1" fill="#a84122" fill-opacity="1"></use><g><use xlink:href="#a2x4H0QwGQ" opacity="1" fill-opacity="0" stroke="#000000" stroke-width="1" stroke-opacity="0"></use></g></g><g><use xlink:href="#bf0Hq4hLz" opacity="1" fill="#000000" fill-opacity="0"></use><g><use xlink:href="#bf0Hq4hLz" opacity="1" fill-opacity="0" stroke="#000000" stroke-width="1" stroke-opacity="0"></use></g></g><g><use xlink:href="#c18Dignf3r" opacity="1" fill="#a84122" fill-opacity="1"></use><g><use xlink:href="#c18Dignf3r" opacity="1" fill-opacity="0" stroke="#000000" stroke-width="1" stroke-opacity="0"></use></g></g><g><use xlink:href="#bJEVZmm96" opacity="1" fill="#000000" fill-opacity="0"></use><g><use xlink:href="#bJEVZmm96" opacity="1" fill-opacity="0" stroke="#000000" stroke-width="1" stroke-opacity="0"></use></g></g><g><use xlink:href="#h3Lyn4ua0E" opacity="1" fill="#000000" fill-opacity="1"></use><g><use xlink:href="#h3Lyn4ua0E" opacity="1" fill-opacity="0" stroke="#000000" stroke-width="1" stroke-opacity="0"></use></g></g><g><use xlink:href="#a1WaIwNO8u" opacity="1" fill="#000000" fill-opacity="1"></use><g><use xlink:href="#a1WaIwNO8u" opacity="1" fill-opacity="0" stroke="#000000" stroke-width="1" stroke-opacity="0"></use></g></g><g><use xlink:href="#a19qCcgrJM" opacity="1" fill="#020202" fill-opacity="1"></use><g><use xlink:href="#a19qCcgrJM" opacity="1" fill-opacity="0" stroke="#000000" stroke-width="1" stroke-opacity="0"></use></g></g><g><use xlink:href="#b34GO2boFv" opacity="1" fill="#a84122" fill-opacity="1"></use><g><use xlink:href="#b34GO2boFv" opacity="1" fill-opacity="0" stroke="#000000" stroke-width="1" stroke-opacity="0"></use></g></g><g><use xlink:href="#amoHGPXlo" opacity="1" fill="#a84122" fill-opacity="1"></use><g><use xlink:href="#amoHGPXlo" opacity="1" fill-opacity="0" stroke="#000000" stroke-width="1" stroke-opacity="0"></use></g></g><g><use xlink:href="#ddcyQxVPi" opacity="1" fill="#a84122" fill-opacity="1"></use><g><use xlink:href="#ddcyQxVPi" opacity="1" fill-opacity="0" stroke="#000000" stroke-width="1" stroke-opacity="0"></use></g></g><g><use xlink:href="#ahsVB87AQ" opacity="1" fill="#a84122" fill-opacity="1"></use><g><use xlink:href="#ahsVB87AQ" opacity="1" fill-opacity="0" stroke="#000000" stroke-width="1" stroke-opacity="0"></use></g></g><g><use xlink:href="#ds7yIeVQC" opacity="1" fill="#a84122" fill-opacity="1"></use><g><use xlink:href="#ds7yIeVQC" opacity="1" fill-opacity="0" stroke="#000000" stroke-width="1" stroke-opacity="0"></use></g></g><g><use xlink:href="#b1eYnrClFj" opacity="1" fill="#a84122" fill-opacity="1"></use><g><use xlink:href="#b1eYnrClFj" opacity="1" fill-opacity="0" stroke="#000000" stroke-width="1" stroke-opacity="0"></use></g></g><g><use xlink:href="#c2N9IefhvR" opacity="1" fill="#a84122" fill-opacity="1"></use><g><use xlink:href="#c2N9IefhvR" opacity="1" fill-opacity="0" stroke="#000000" stroke-width="1" stroke-opacity="0"></use></g></g><g><use xlink:href="#boaIi5Wgl" opacity="1" fill="#a84122" fill-opacity="1"></use><g><use xlink:href="#boaIi5Wgl" opacity="1" fill-opacity="0" stroke="#000000" stroke-width="1" stroke-opacity="0"></use></g></g></g></g></svg>