<?xml version="1.0" encoding="UTF-8" standalone="no"?>
<!DOCTYPE svg PUBLIC "-//W3C//DTD SVG 1.1//EN" "http://www.w3.org/Graphics/SVG/1.1/DTD/svg11.dtd">
<svg version="1.1" xmlns="http://www.w3.org/2000/svg" xmlns:xlink="http://www.w3.org/1999/xlink" preserveAspectRatio="xMidYMid meet" viewBox="-1.0000000000000568 0.22999999999999998 359.31 240.35840425531913" width="355.31" height="236.36"><defs><path d="M177.66 33.76C275.71 33.76 355.31 39.18 355.31 45.86C355.31 52.54 275.71 57.95 177.66 57.95C79.61 57.95 0 52.54 0 45.86C0 39.18 79.61 33.76 177.66 33.76Z" id="bcPSKuKb2"></path><path d="M0 237.59L0 45.59L355.31 45.59L355.31 237.59L0 237.59Z" id="ae3puZhPz"></path><path d="M278.86 57.95C236.53 57.95 118.77 57.95 76.44 57.95C71.35 57.95 67.22 53.81 67.22 48.72C67.22 39.23 67.22 19.95 67.22 10.46C67.22 5.36 71.35 1.23 76.44 1.23C118.77 1.23 236.53 1.23 278.86 1.23C283.95 1.23 288.08 5.36 288.08 10.46C288.08 19.95 288.08 39.23 288.08 48.72C288.08 53.81 283.95 57.95 278.86 57.95Z" id="a2uFQ7ezSH"></path><path d="M177.66 12.9C182.95 12.9 187.24 17.58 187.24 23.34C187.24 29.09 182.95 33.76 177.66 33.76C172.36 33.76 168.06 29.09 168.06 23.34C168.06 17.58 172.36 12.9 177.66 12.9Z" id="dMnUHGWxY"></path><path d="M245.97 12.91C251.26 12.91 255.56 17.58 255.56 23.33C255.56 29.09 251.26 33.76 245.97 33.76C240.67 33.76 236.37 29.09 236.37 23.33C236.37 17.58 240.67 12.91 245.97 12.91Z" id="c2SAhKqBl"></path><path d="M177.66 124.27C196.99 124.27 212.68 139.58 212.68 158.46C212.68 177.33 196.99 192.66 177.66 192.66C158.32 192.66 142.63 177.33 142.63 158.46C142.63 139.58 158.32 124.27 177.66 124.27Z" id="cfOGPci0h"></path><path d="M245.97 12.91C251.26 12.91 255.56 17.58 255.56 23.33C255.56 29.09 251.26 33.76 245.97 33.76C240.67 33.76 236.37 29.09 236.37 23.33C236.37 17.58 240.67 12.91 245.97 12.91Z" id="a3aLn2Bdy"></path><path d="M51.92 135.42C64.42 135.42 74.58 148.24 74.58 164.05C74.58 179.84 64.42 192.66 51.92 192.66C39.4 192.66 29.25 179.84 29.25 164.05C29.25 148.24 39.4 135.42 51.92 135.42Z" id="cIvz328vw"></path><path d="M95.94 22.95C95.94 17.41 100.08 12.91 105.18 12.91C110.28 12.91 114.43 17.41 114.43 22.95C114.43 28.5 110.28 33.01 105.18 33.01C100.08 33.01 95.94 28.5 95.94 22.95Z" id="jm8diQpZi"></path><path d="M105.18 214.41L104.18 214.41L104.18 68.77L105.18 68.77L105.18 214.41Z" id="b4VxpIVp8"></path><path d="M244.98 214.41L243.98 214.41L243.98 68.77L244.98 68.77L244.98 214.41Z" id="e9wJOUlsa"></path><path d="M276.3 163.01C276.3 147.78 286.09 135.42 298.15 135.42C310.21 135.42 320 147.78 320 163.01C320 178.23 310.21 190.59 298.15 190.59C286.09 190.59 276.3 178.23 276.3 163.01Z" id="aLc5dmIU"></path></defs><g><g><use xlink:href="#bcPSKuKb2" opacity="1" fill="#000000" fill-opacity="1"></use><g><use xlink:href="#bcPSKuKb2" opacity="1" fill-opacity="0" stroke="#000000" stroke-width="1" stroke-opacity="0"></use></g></g><g><use xlink:href="#ae3puZhPz" opacity="1" fill="#000000" fill-opacity="1"></use><g><use xlink:href="#ae3puZhPz" opacity="1" fill-opacity="0" stroke="#000000" stroke-width="1" stroke-opacity="0"></use></g></g><g><use xlink:href="#a2uFQ7ezSH" opacity="1" fill="#020202" fill-opacity="1"></use><g><use xlink:href="#a2uFQ7ezSH" opacity="1" fill-opacity="0" stroke="#000000" stroke-width="1" stroke-opacity="0"></use></g></g><g><use xlink:href="#dMnUHGWxY" opacity="1" fill="#f8f6f5" fill-opacity="1"></use><g><use xlink:href="#dMnUHGWxY" opacity="1" fill-opacity="0" stroke="#000000" stroke-width="1" stroke-opacity="0"></use></g></g><g><use xlink:href="#c2SAhKqBl" opacity="1" fill="#000000" fill-opacity="0"></use><g><use xlink:href="#c2SAhKqBl" opacity="1" fill-opacity="0" stroke="#000000" stroke-width="1" stroke-opacity="0"></use></g></g><g><use xlink:href="#cfOGPci0h" opacity="1" fill="#f9f9f9" fill-opacity="1"></use><g><use xlink:href="#cfOGPci0h" opacity="1" fill-opacity="0" stroke="#000000" stroke-width="1" stroke-opacity="0"></use></g></g><g><use xlink:href="#a3aLn2Bdy" opacity="1" fill="#ffffff" fill-opacity="1"></use><g><use xlink:href="#a3aLn2Bdy" opacity="1" fill-opacity="0" stroke="#000000" stroke-width="1" stroke-opacity="0"></use></g></g><g><use xlink:href="#cIvz328vw" opacity="1" fill="#fbf9f8" fill-opacity="1"></use><g><use xlink:href="#cIvz328vw" opacity="1" fill-opacity="0" stroke="#000000" stroke-width="1" stroke-opacity="0"></use></g></g><g><use xlink:href="#jm8diQpZi" opacity="1" fill="#fbf8f7" fill-opacity="1"></use><g><use xlink:href="#jm8diQpZi" opacity="1" fill-opacity="0" stroke="#000000" stroke-width="1" stroke-opacity="0"></use></g></g><g><use xlink:href="#b4VxpIVp8" opacity="1" fill="#f3eeec" fill-opacity="1"></use><g><use xlink:href="#b4VxpIVp8" opacity="1" fill-opacity="0" stroke="#000000" stroke-width="1" stroke-opacity="0"></use></g></g><g><use xlink:href="#e9wJOUlsa" opacity="1" fill="#ffffff" fill-opacity="1"></use><g><use xlink:href="#e9wJOUlsa" opacity="1" fill-opacity="0" stroke="#000000" stroke-width="1" stroke-opacity="0"></use></g></g><g><use xlink:href="#aLc5dmIU" opacity="1" fill="#f9f5f4" fill-opacity="1"></use><g><use xlink:href="#aLc5dmIU" opacity="1" fill-opacity="0" stroke="#000000" stroke-width="1" stroke-opacity="0"></use></g></g></g></svg>